<svg xmlns="http://www.w3.org/2000/svg" viewBox="0 0 512 512"><defs><linearGradient id="g" x1="0" y1="0" x2="1" y2="1"><stop offset="0" stop-color="#a855f7"/><stop offset="1" stop-color="#06b6d4"/></linearGradient></defs><rect width="512" height="512" rx="112" fill="url(#g)"/><path fill="#fff" d="M256 112c-40 0-72 30-72 70-22 10-36 32-36 58 0 20 10 40 26 52-6 12-10 26-10 40 0 42 34 76 76 76h32c42 0 76-34 76-76 0-14-4-28-10-40 16-12 26-32 26-52 0-26-14-48-36-58 0-40-32-70-72-70Zm-40 144h80m-80 40h80"/></svg>
